<svg width="11" height="7" viewBox="0 0 11 7" fill="none" xmlns="http://www.w3.org/2000/svg">
<g clip-path="url(#clip0)">
<path d="M4.40002 4.40002L8.40002 0.400024C8.90002 -0.0999756 9.60002 -0.0999756 10.1 0.400024C10.6 0.900024 10.6 1.60002 10.1 2.10002L6.00002 6.00002C5.60002 6.50002 4.80002 6.50002 4.40002 6.00002C3.90002 5.60002 3.90002 4.80002 4.40002 4.40002Z" fill="#CD4090"/>
<path d="M2.00002 0.3L6.00002 4.3C6.50002 4.8 6.50002 5.6 6.00002 6C5.60002 6.5 4.80002 6.5 4.40002 6L0.400024 2C-0.0999756 1.5 -0.0999756 0.8 0.400024 0.3C0.800024 -0.1 1.60002 -0.1 2.00002 0.3Z" fill="#CD4090"/>
</g>
<defs>
<clipPath id="clip0">
<rect width="10.4" height="6.4" fill="white"/>
</clipPath>
</defs>
</svg>
