<svg width="84" height="56" viewBox="0 0 84 56" fill="none" xmlns="http://www.w3.org/2000/svg">
<g clip-path="url(#clip0)">
<path d="M26.5111 0C24.6957 0 23.0964 0.950943 22.1886 2.44528C21.2809 0.996226 19.6816 0 17.8662 0C15.0133 0 12.6792 2.44528 12.6792 5.43396C12.6792 11.0491 19.5519 13.7208 22.1886 19.0189C24.8253 13.7208 31.6981 11.0491 31.6981 5.43396C31.6981 2.44528 29.3639 0 26.5111 0Z" fill="#CD4090"/>
</g>
<g clip-path="url(#clip1)">
<path d="M33.0607 55.4718C25.8693 55.4718 20.0762 49.7521 20.0762 42.6517C20.0762 35.5513 25.8693 29.8315 33.0607 29.8315C40.2522 29.8315 46.0453 35.5513 46.0453 42.6517C46.0453 49.7521 40.2522 55.4718 33.0607 55.4718ZM33.0607 31.8039C26.968 31.8039 22.0738 36.6361 22.0738 42.6517C22.0738 48.6673 26.968 53.4995 33.0607 53.4995C39.1535 53.4995 44.0476 48.6673 44.0476 42.6517C44.0476 36.6361 39.1535 31.8039 33.0607 31.8039Z" fill="#CD4090"/>
<path d="M71.0156 55.4718C63.8241 55.4718 58.031 49.7521 58.031 42.6517C58.031 35.5513 63.8241 29.8315 71.0156 29.8315C78.207 29.8315 84.0001 35.5513 84.0001 42.6517C84.0001 49.7521 78.207 55.4718 71.0156 55.4718ZM71.0156 31.8039C64.9228 31.8039 60.0286 36.6361 60.0286 42.6517C60.0286 48.6673 64.9228 53.4995 71.0156 53.4995C77.1083 53.4995 82.0025 48.6673 82.0025 42.6517C82.0025 36.6361 77.1083 31.8039 71.0156 31.8039Z" fill="#CD4090"/>
<path d="M71.0155 46.5962C68.8181 46.5962 67.0203 44.8211 67.0203 42.6516C67.0203 40.482 68.8181 38.7069 71.0155 38.7069C73.2129 38.7069 75.0107 40.482 75.0107 42.6516C75.0107 44.8211 73.2129 46.5962 71.0155 46.5962ZM71.0155 40.6792C69.9168 40.6792 69.0179 41.5668 69.0179 42.6516C69.0179 43.7363 69.9168 44.6239 71.0155 44.6239C72.1142 44.6239 73.0131 43.7363 73.0131 42.6516C73.0131 41.5668 72.1142 40.6792 71.0155 40.6792Z" fill="#CD4090"/>
<path d="M33.0607 46.5962C30.8633 46.5962 29.0654 44.8211 29.0654 42.6516C29.0654 40.482 30.8633 38.7069 33.0607 38.7069C35.2581 38.7069 37.0559 40.482 37.0559 42.6516C37.0559 44.8211 35.2581 46.5962 33.0607 46.5962ZM33.0607 40.6792C31.962 40.6792 31.0631 41.5668 31.0631 42.6516C31.0631 43.7363 31.962 44.6239 33.0607 44.6239C34.1594 44.6239 35.0583 43.7363 35.0583 42.6516C35.0583 41.5668 34.1594 40.6792 33.0607 40.6792Z" fill="#CD4090"/>
<path d="M50.0404 46.5962C47.843 46.5962 46.0452 44.8211 46.0452 42.6516C46.0452 40.482 47.843 38.7069 50.0404 38.7069C52.2378 38.7069 54.0356 40.482 54.0356 42.6516C54.0356 44.8211 52.2378 46.5962 50.0404 46.5962ZM50.0404 40.6792C48.9417 40.6792 48.0428 41.5668 48.0428 42.6516C48.0428 43.7363 48.9417 44.6239 50.0404 44.6239C51.1391 44.6239 52.038 43.7363 52.038 42.6516C52.038 41.5668 51.1391 40.6792 50.0404 40.6792Z" fill="#CD4090"/>
<path d="M71.0156 43.6378C70.6161 43.6378 70.2165 43.3419 70.0168 42.9474L60.0287 12.3764C59.9288 11.8833 60.2284 11.2916 60.7278 11.0944C61.2272 10.8971 61.8265 11.193 62.0263 11.6861L72.0144 42.2571C72.2142 42.7502 71.9145 43.3419 71.4151 43.5391C71.2153 43.6378 71.1155 43.6378 71.0156 43.6378Z" fill="#CD4090"/>
<path d="M69.0179 13.0667H61.0274C60.4281 13.0667 60.0286 12.6722 60.0286 12.0805C60.0286 11.4888 60.4281 11.0944 61.0274 11.0944H69.0179C69.6172 11.0944 70.0167 11.4888 70.0167 12.0805C70.0167 12.6722 69.6172 13.0667 69.0179 13.0667Z" fill="#CD4090"/>
<path d="M47.0441 43.6378H36.0572C35.4579 43.6378 35.0583 43.2434 35.0583 42.6517C35.0583 42.06 35.4579 41.6655 36.0572 41.6655H47.0441C47.6434 41.6655 48.0429 42.06 48.0429 42.6517C48.0429 43.2434 47.6434 43.6378 47.0441 43.6378Z" fill="#CD4090"/>
<path d="M33.0606 43.6377C32.8609 43.6377 32.6611 43.5391 32.4614 43.4405C31.962 43.1446 31.8621 42.5529 32.1617 42.0598L42.7491 26.2812C43.0488 25.7882 43.648 25.6895 44.1475 25.9854C44.6469 26.2812 44.7467 26.8729 44.4471 27.366L33.9596 43.2432C33.7598 43.5391 33.3603 43.6377 33.0606 43.6377Z" fill="#CD4090"/>
<path d="M65.9215 27.8592H43.648C43.0487 27.8592 42.6492 27.4647 42.6492 26.873C42.6492 26.2813 43.0487 25.8868 43.648 25.8868H65.9215C66.5207 25.8868 66.9203 26.2813 66.9203 26.873C66.9203 27.4647 66.4209 27.8592 65.9215 27.8592Z" fill="#CD4090"/>
<path d="M52.138 41.5668C51.8383 41.5668 51.6386 41.4682 51.4388 41.271C51.0393 40.8765 51.0393 40.2848 51.4388 39.8904L65.1225 26.1827C65.522 25.7882 66.1213 25.7882 66.5208 26.1827C66.9204 26.5772 66.9204 27.1689 66.5208 27.5633L52.8371 41.271C52.6374 41.4682 52.4376 41.5668 52.138 41.5668Z" fill="#CD4090"/>
<path d="M48.9418 40.8765C48.5423 40.8765 48.1428 40.6793 48.0429 40.2848L41.1511 23.3228C40.9513 22.8297 41.1511 22.238 41.7504 22.0408C42.2498 21.8435 42.8491 22.0408 43.0488 22.6325L49.9406 39.5945C50.1404 40.0876 49.9406 40.6793 49.3413 40.8765C49.2415 40.8765 49.0417 40.8765 48.9418 40.8765Z" fill="#CD4090"/>
<path d="M48.0428 23.9145H38.0547C37.4554 23.9145 37.0559 23.52 37.0559 22.9283C37.0559 22.3366 37.4554 21.9421 38.0547 21.9421H48.0428C48.6421 21.9421 49.0416 22.3366 49.0416 22.9283C49.0416 23.52 48.6421 23.9145 48.0428 23.9145Z" fill="#CD4090"/>
<path d="M48.0429 23.9145C47.4436 23.9145 47.044 23.52 47.044 22.9283C47.044 21.8435 46.1451 20.956 45.0464 20.956C44.4471 20.956 44.0476 20.5615 44.0476 19.9698C44.0476 19.3781 44.4471 18.9836 45.0464 18.9836C47.2438 18.9836 49.0417 20.7587 49.0417 22.9283C49.0417 23.52 48.6421 23.9145 48.0429 23.9145Z" fill="#CD4090"/>
<path d="M38.0547 23.9145C37.4554 23.9145 37.0559 23.52 37.0559 22.9283V19.9698C37.0559 19.3781 37.4554 18.9836 38.0547 18.9836C38.654 18.9836 39.0535 19.3781 39.0535 19.9698V22.9283C39.0535 23.52 38.654 23.9145 38.0547 23.9145Z" fill="#CD4090"/>
<path d="M45.0464 20.956H38.0547C37.4554 20.956 37.0559 20.5615 37.0559 19.9698C37.0559 19.3781 37.4554 18.9836 38.0547 18.9836H45.0464C45.6457 18.9836 46.0452 19.3781 46.0452 19.9698C46.0452 20.5615 45.6457 20.956 45.0464 20.956Z" fill="#CD4090"/>
<path d="M55.0346 48.5687C54.735 48.5687 54.5352 48.4701 54.3355 48.2728L49.3414 43.342C48.9419 42.9475 48.9419 42.3558 49.3414 41.9614C49.7409 41.5669 50.3402 41.5669 50.7397 41.9614L55.7338 46.8922C56.1333 47.2867 56.1333 47.8784 55.7338 48.2728C55.534 48.4701 55.3343 48.5687 55.0346 48.5687Z" fill="#CD4090"/>
<path d="M57.0322 48.5686H52.0381C51.4388 48.5686 51.0393 48.1742 51.0393 47.5825C51.0393 46.9908 51.4388 46.5963 52.0381 46.5963H57.0322C57.6315 46.5963 58.031 46.9908 58.031 47.5825C58.031 48.1742 57.6315 48.5686 57.0322 48.5686Z" fill="#CD4090"/>
<path d="M14.6825 50.8367H10.2877C9.58854 50.8367 8.98926 50.245 8.98926 49.5547C8.98926 48.8644 9.58854 48.2727 10.2877 48.2727H14.6825C15.3816 48.2727 15.9809 48.8644 15.9809 49.5547C15.9809 50.245 15.3816 50.8367 14.6825 50.8367Z" fill="#CD4090"/>
<path d="M14.6826 43.9335H6.2926C5.59343 43.9335 4.99414 43.3418 4.99414 42.6515C4.99414 41.9612 5.59343 41.3695 6.2926 41.3695H14.6826C15.3818 41.3695 15.9811 41.9612 15.9811 42.6515C15.9811 43.3418 15.3818 43.9335 14.6826 43.9335Z" fill="#CD4090"/>
<path d="M14.6825 37.0305H1.29845C0.599287 37.0305 0 36.4388 0 35.7484C0 35.0581 0.599287 34.4664 1.29845 34.4664H14.6825C15.3817 34.4664 15.981 35.0581 15.981 35.7484C15.981 36.4388 15.3817 37.0305 14.6825 37.0305Z" fill="#CD4090"/>
</g>
<defs>
<clipPath id="clip0">
<rect x="12.6792" width="19.0189" height="19.0189" fill="white"/>
</clipPath>
<clipPath id="clip1">
<rect y="11.0944" width="84" height="44.3774" fill="white"/>
</clipPath>
</defs>
</svg>
